<?xml version="1.0" encoding="UTF-8" standalone="no" ?>
<!-- Created with Inkscape (http://www.inkscape.org/) -->
<svg
    width="160mm"
    height="90mm"
    viewBox="0 0 160 90"
    version="1.1"
    id="svg240"
    inkscape:version="1.4.3 (0d15f75042, 2025-12-25)"
    sodipodi:docname="diday-event-banner-plain.svg"
    inkscape:export-filename="diday-logo-main-dark.png"
    inkscape:export-xdpi="304.79999"
    inkscape:export-ydpi="304.79999"
    xmlns:inkscape="http://www.inkscape.org/namespaces/inkscape"
    xmlns:sodipodi="http://sodipodi.sourceforge.net/DTD/sodipodi-0.dtd"
    xmlns:xlink="http://www.w3.org/1999/xlink"
    xmlns="http://www.w3.org/2000/svg"
    xmlns:svg="http://www.w3.org/2000/svg"
>
  <sodipodi:namedview
        id="namedview242"
        pagecolor="#505050"
        bordercolor="#ffffff"
        borderopacity="1"
        inkscape:showpageshadow="0"
        inkscape:pageopacity="0"
        inkscape:pagecheckerboard="1"
        inkscape:deskcolor="#505050"
        inkscape:document-units="mm"
        showgrid="false"
        inkscape:zoom="2.3035734"
        inkscape:cx="183.8448"
        inkscape:cy="64.46506"
        inkscape:window-width="4082"
        inkscape:window-height="1642"
        inkscape:window-x="0"
        inkscape:window-y="0"
        inkscape:window-maximized="1"
        inkscape:current-layer="layer3"
    />
  <style id="style1">
    #text-diday, #text-chaostreff, #text-osnabrueck, #effect{
      fill: #191919;
    }
    @media (prefers-color-scheme: dark) {
        #text-diday, #text-chaostreff, #text-osnabrueck, #effect{
        fill: #ffffff;
        }
    }
  </style>
  <defs id="defs237">
    <linearGradient inkscape:collect="always" id="linearGradient1146">
      <stop
                style="stop-color:#ff0000;stop-opacity:1;"
                offset="0"
                id="stop1142"
            />
      <stop
                style="stop-color:#ffff00;stop-opacity:1;"
                offset="0.2"
                id="stop1144"
            />
      <stop
                style="stop-color:#00ff00;stop-opacity:1;"
                offset="0.40000001"
                id="stop4054"
            />
      <stop
                style="stop-color:#00ffff;stop-opacity:1;"
                offset="0.60000002"
                id="stop4056"
            />
      <stop
                style="stop-color:#0000ff;stop-opacity:1;"
                offset="0.80000001"
                id="stop4058"
            />
      <stop
                style="stop-color:#ff00ff;stop-opacity:1;"
                offset="1"
                id="stop4060"
            />
    </linearGradient>
    <linearGradient
            inkscape:collect="always"
            xlink:href="#linearGradient1146"
            id="linearGradient1148-3"
            x1="48.797504"
            y1="138.62044"
            x2="118.7975"
            y2="138.62044"
            gradientUnits="userSpaceOnUse"
            gradientTransform="matrix(1.9742417,0,0,1.9742417,-85.435754,-228.66949)"
        />
  </defs>
  <g
        inkscape:groupmode="layer"
        id="layer2"
        inkscape:label="Background"
        transform="translate(-18.797504,-108.62044)"
    />
  <g
        inkscape:label="Main"
        inkscape:groupmode="layer"
        id="layer1"
        transform="translate(-18.797504,-108.62044)"
    >
    <g id="g1" style="fill-opacity:1">
      <path
                style="font-weight:300;font-size:13.2535px;font-family:Montserrat;-inkscape-font-specification:'Montserrat Light';text-align:end;text-anchor:end;stroke-width:0.465;fill-opacity:1"
                d="m 91.671283,181.55049 c 2.756728,0 4.824274,-2.00128 4.824274,-4.70499 0,-2.70372 -2.067546,-4.705 -4.824274,-4.705 -2.769981,0 -4.824274,2.01454 -4.824274,4.705 0,2.69046 2.054293,4.70499 4.824274,4.70499 z m 0,-0.62291 c -2.372376,0 -4.148345,-1.73621 -4.148345,-4.08208 0,-2.34587 1.775969,-4.08208 4.148345,-4.08208 2.359123,0 4.135092,1.73621 4.135092,4.08208 0,2.34587 -1.775969,4.08208 -4.135092,4.08208 z m 8.707537,0.60966 c 1.76272,0 2.73022,-0.76871 2.73022,-1.89525 0,-2.63745 -4.585706,-1.16631 -4.585706,-3.24711 0,-0.7422 0.596407,-1.29884 1.948266,-1.29884 0.74219,0 1.49764,0.1988 2.0808,0.62291 l 0.30483,-0.53014 c -0.5434,-0.41086 -1.49765,-0.67593 -2.37238,-0.67593 -1.74946,0 -2.624191,0.84823 -2.624191,1.89525 0,2.71697 4.585711,1.23258 4.585711,3.24711 0,0.78196 -0.58315,1.29884 -2.04104,1.29884 -1.020519,0 -1.961517,-0.38435 -2.491657,-0.83497 l -0.304831,0.53014 c 0.543394,0.50363 1.630181,0.88799 2.769978,0.88799 z m 4.58572,-0.053 h 0.66268 v -3.68447 c 0,-1.64343 0.99401,-2.69046 2.62419,-2.69046 1.40487,0 2.23984,0.82172 2.23984,2.38563 v 3.9893 h 0.66268 v -4.04232 c 0,-1.93501 -1.12655,-2.92902 -2.80974,-2.92902 -1.3121,0 -2.27961,0.58316 -2.74348,1.53741 v -1.48439 h -0.63617 z m 13.28001,0 h 0.63617 v -4.38691 c 0,-1.7097 -0.95425,-2.58443 -2.66395,-2.58443 -1.07353,0 -2.0808,0.3711 -2.76998,0.98076 l 0.33134,0.47713 c 0.5699,-0.51689 1.43137,-0.87473 2.38563,-0.87473 1.35185,0 2.05429,0.68918 2.05429,1.97477 v 0.55664 h -2.37238 c -1.92176,0 -2.58443,0.88799 -2.58443,1.93501 0,1.17957 0.941,1.97478 2.49166,1.97478 1.20607,0 2.05429,-0.49038 2.49165,-1.28559 z m -0.0265,-2.04104 c -0.39761,0.99402 -1.20607,1.55066 -2.37238,1.55066 -1.21932,0 -1.92176,-0.55664 -1.92176,-1.45788 0,-0.79521 0.50364,-1.39162 1.93501,-1.39162 h 2.35913 z m 6.86531,2.09406 c 1.94827,0 3.41941,-1.44464 3.41941,-3.51218 0,-2.0808 -1.47114,-3.51218 -3.41941,-3.51218 -1.21932,0 -2.26634,0.59641 -2.80974,1.64344 v -4.50619 h -0.66267 v 9.83409 h 0.63616 v -1.63018 c 0.5434,1.06028 1.59042,1.6832 2.83625,1.6832 z m -0.0398,-0.59641 c -1.59042,0 -2.78323,-1.17956 -2.78323,-2.91577 0,-1.73621 1.19281,-2.91577 2.78323,-2.91577 1.59042,0 2.79649,1.17956 2.79649,2.91577 0,1.73621 -1.20607,2.91577 -2.79649,2.91577 z m 5.51345,0.54339 h 0.66267 v -3.60495 c 0,-1.7097 0.9145,-2.73022 2.4519,-2.73022 0.053,0 0.10603,0.0132 0.15904,0.0132 v -0.64942 c -1.31209,0 -2.21333,0.55665 -2.63744,1.56391 v -1.51089 h -0.63617 z m 8.03161,0.053 c 1.21932,0 2.14706,-0.5699 2.61094,-1.52416 v 1.47114 h 0.63616 v -6.91832 h -0.66267 v 3.68447 c 0,1.64343 -0.96751,2.69046 -2.53142,2.69046 -1.44463,0 -2.2796,-0.82172 -2.2796,-2.38563 v -3.9893 h -0.66268 v 4.04231 c 0,1.93501 1.12655,2.92903 2.88927,2.92903 z m -0.96751,-8.45574 c 0.26507,0 0.47713,-0.21205 0.47713,-0.47712 0,-0.27833 -0.21206,-0.47713 -0.47713,-0.47713 -0.25181,0 -0.47712,0.1988 -0.47712,0.47713 0,0.26507 0.22531,0.47712 0.47712,0.47712 z m 2.29286,0 c 0.26507,0 0.47712,-0.21205 0.47712,-0.47712 0,-0.27833 -0.21205,-0.47713 -0.47712,-0.47713 -0.26507,0 -0.47713,0.1988 -0.47713,0.47713 0,0.26507 0.21206,0.47712 0.47713,0.47712 z m 7.47498,8.45574 c 1.10004,0 2.05429,-0.43737 2.62419,-1.27234 l -0.49038,-0.35784 c -0.50363,0.70243 -1.27233,1.03377 -2.13381,1.03377 -1.63018,0 -2.823,-1.16631 -2.823,-2.91577 0,-1.74946 1.19282,-2.91577 2.823,-2.91577 0.86148,0 1.63018,0.33134 2.13381,1.03377 l 0.49038,-0.35784 c -0.5699,-0.84823 -1.52415,-1.27234 -2.62419,-1.27234 -2.02779,0 -3.49892,1.44463 -3.49892,3.51218 0,2.05429 1.47113,3.51218 3.49892,3.51218 z m 4.49293,-0.053 h 0.66268 v -2.04104 l 1.78922,-1.65668 2.95553,3.69772 h 0.82172 l -3.26036,-4.12184 2.96878,-2.79648 h -0.84822 l -4.42667,4.05557 v -6.97134 h -0.66268 z"
                id="text-osnabrueck"
                inkscape:label="Osnabrueck"
                aria-label="Osnabrück"
            />
      <path
                style="font-weight:bold;font-size:13.2535px;font-family:Montserrat;-inkscape-font-specification:'Montserrat Bold';letter-spacing:0px;word-spacing:0px;stroke-width:1.10445;fill-opacity:1"
                d="m 44.507321,135.78957 c 1.616927,0 2.95553,-0.58315 3.830261,-1.65669 l -1.378364,-1.27233 c -0.622914,0.72894 -1.404871,1.10004 -2.332616,1.10004 -1.736208,0 -2.968784,-1.21933 -2.968784,-2.96879 0,-1.74946 1.232576,-2.96878 2.968784,-2.96878 0.927745,0 1.709702,0.3711 2.332616,1.08679 l 1.378364,-1.27234 c -0.874731,-1.06028 -2.213334,-1.64343 -3.817008,-1.64343 -2.889263,0 -5.03633,2.00127 -5.03633,4.79776 0,2.79649 2.147067,4.79777 5.023077,4.79777 z m 5.009835,-0.15904 h 2.067546 v -3.52543 c 0,-1.3121 0.715689,-1.92176 1.709702,-1.92176 0.914491,0 1.444631,0.53014 1.444631,1.68319 v 3.764 h 2.067546 v -4.08208 c 0,-2.17357 -1.272336,-3.15433 -2.95553,-3.15433 -0.914492,0 -1.709702,0.29157 -2.266349,0.84822 v -3.44591 h -2.067546 z m 13.531824,0 h 1.935011 v -4.06883 c 0,-2.16032 -1.259082,-3.16758 -3.432656,-3.16758 -1.139801,0 -2.292856,0.30483 -3.074812,0.86147 l 0.742196,1.44464 c 0.516886,-0.41086 1.298843,-0.66268 2.054292,-0.66268 1.113294,0 1.643434,0.51689 1.643434,1.40487 h -1.643434 c -2.173574,0 -3.061558,0.87473 -3.061558,2.13381 0,1.23258 0.994012,2.16033 2.663953,2.16033 1.047027,0 1.775969,-0.3446 2.173574,-0.98076 z m -0.132535,-2.2531 c -0.238563,0.64942 -0.83497,0.96751 -1.524152,0.96751 -0.728943,0 -1.166308,-0.34459 -1.166308,-0.86148 0,-0.47713 0.30483,-0.83497 1.272336,-0.83497 h 1.418124 z m 7.382203,2.35913 c 2.266348,0 3.909782,-1.52416 3.909782,-3.67122 0,-2.14707 -1.643434,-3.67122 -3.909782,-3.67122 -2.266349,0 -3.923036,1.52415 -3.923036,3.67122 0,2.14706 1.656687,3.67122 3.923036,3.67122 z m 0,-1.69645 c -1.033773,0 -1.828983,-0.7422 -1.828983,-1.97477 0,-1.23258 0.79521,-1.97478 1.828983,-1.97478 1.033773,0 1.815729,0.7422 1.815729,1.97478 0,1.23257 -0.781956,1.97477 -1.815729,1.97477 z m 7.687037,1.69645 c 2.133813,0 3.366389,-0.941 3.366389,-2.26635 0,-2.80974 -4.307388,-1.63018 -4.307388,-2.84951 0,-0.37109 0.397605,-0.66267 1.32535,-0.66267 0.649422,0 1.351857,0.13253 2.054293,0.53014 l 0.689182,-1.47114 c -0.675929,-0.3976 -1.762716,-0.62291 -2.743475,-0.62291 -2.080799,0 -3.300121,0.95425 -3.300121,2.30611 0,1.7362 1.603673,1.97477 2.862756,2.14706 0.79521,0.11928 1.444631,0.22531 1.444631,0.67593 0,0.39761 -0.357844,0.64942 -1.312096,0.64942 -0.874731,0 -1.842237,-0.27832 -2.478405,-0.68918 l -0.689182,1.48439 c 0.662675,0.43737 1.881997,0.76871 3.088066,0.76871 z m 7.554499,0 c 0.636168,0 1.259083,-0.14579 1.683195,-0.45062 l -0.556647,-1.45789 c -0.22531,0.1723 -0.53014,0.26507 -0.834971,0.26507 -0.556647,0 -0.887984,-0.33134 -0.887984,-0.941 v -3.06156 h 1.775969 v -1.59042 h -1.775969 v -1.57716 h -2.067546 v 1.57716 H 81.77619 v 1.59042 h 1.100041 v 3.08807 c 0,1.69645 0.980759,2.55793 2.663953,2.55793 z m 2.849497,-0.10603 h 2.067546 v -3.36639 c 0,-1.36511 0.755449,-1.98803 1.89525,-1.98803 0.159042,0 0.291577,0.0133 0.463873,0.0265 v -1.9085 c -1.100041,0 -1.948265,0.35784 -2.451898,1.04702 v -0.941 h -1.974771 z m 9.131644,0.10603 c 1.28559,0 2.279602,-0.39761 2.942275,-1.15306 l -1.100038,-1.19281 c -0.49038,0.46387 -1.033773,0.68918 -1.789223,0.68918 -1.086787,0 -1.842236,-0.5434 -2.041039,-1.43138 h 5.39417 c 0.0133,-0.1723 0.0398,-0.3976 0.0398,-0.55665 0,-2.29285 -1.616932,-3.69772 -3.710985,-3.69772 -2.173574,0 -3.803754,1.5374 -3.803754,3.67122 0,2.12056 1.603673,3.67122 4.068824,3.67122 z m -2.001278,-4.29414 c 0.145788,-0.90124 0.808463,-1.48439 1.749462,-1.48439 0.927745,0 1.603673,0.58315 1.749462,1.48439 z m 7.077383,4.18811 h 2.06754 v -5.38092 h 1.77597 v -1.59042 h -1.82898 v -0.30483 c 0,-0.70244 0.33134,-1.03378 0.941,-1.03378 0.31808,0 0.60966,0.0928 0.83497,0.25182 l 0.54339,-1.49765 c -0.38435,-0.26507 -0.99401,-0.38435 -1.57717,-0.38435 -1.77597,0 -2.75672,1.04703 -2.75672,2.6507 v 0.31809 h -1.10004 v 1.59042 h 1.10004 z m 5.23511,0 h 2.06754 v -5.38092 h 1.77597 v -1.59042 h -1.82898 v -0.30483 c 0,-0.70244 0.33134,-1.03378 0.941,-1.03378 0.31808,0 0.60966,0.0928 0.83497,0.25182 l 0.54339,-1.49765 c -0.38435,-0.26507 -0.99401,-0.38435 -1.57716,-0.38435 -1.77597,0 -2.75673,1.04703 -2.75673,2.6507 v 0.31809 h -1.10004 v 1.59042 h 1.10004 z"
                id="text-chaostreff"
                inkscape:label="Chaostreff"
                aria-label="Chaostreff&#10;"
            />
    </g>
  </g>
  <g
        inkscape:groupmode="layer"
        id="layer3"
        inkscape:label="Warning"
        style="display:inline"
    >
    <path
            id="text-diday"
            style="font-weight:300;font-size:13.2535px;font-family:Montserrat;-inkscape-font-specification:'Montserrat Light';text-align:end;text-anchor:end;display:inline;stroke-width:0.465;fill-opacity:1"
            d="m 20.68689,32.720653 v 24.315814 h 10.629319 c 7.885263,0 13.269465,-4.863168 13.269465,-12.157912 0,-7.294725 -5.384202,-12.157902 -13.269465,-12.157902 z m 28.692804,0 v 24.315814 h 4.515482 V 32.720653 Z m 20.251464,0 v 24.315814 h 9.899647 c 7.781051,0 13.026586,-5.002107 13.026586,-12.157912 0,-7.155785 -5.245535,-12.157902 -13.026586,-12.157902 z m 35.570412,0 -11.11559,24.315814 h 2.674768 l 2.917648,-6.496246 h 13.582114 l 2.88303,6.496246 h 2.7099 L 107.73733,32.720653 Z m 12.12329,0 9.72601,15.909089 v 8.406725 h 2.53628 v -8.406725 l 9.72601,-15.909089 h -2.57038 l -8.33695,13.61673 -8.33696,-13.61673 z m -45.123319,2.223118 h 7.19077 c 6.461046,0 10.629322,4.099008 10.629322,9.934784 0,5.835795 -4.168276,9.934273 -10.629322,9.934273 h -7.19077 z m 34.250599,0.45113 5.87044,13.061211 h -11.70625 z m -81.249766,1.1467 h 5.905579 c 5.418947,0 8.927097,3.300118 8.927097,8.336954 0,5.036847 -3.50815,8.336434 -8.927097,8.336434 H 25.202374 Z M 61.433212,51.51329 c -1.563156,0 -2.848401,1.146179 -2.848401,2.883028 0,1.66737 1.285245,2.883029 2.848401,2.883029 1.56316,0 2.848405,-1.215659 2.848405,-2.883029 0,-1.736849 -1.285245,-2.883028 -2.848405,-2.883028 z"
            inkscape:label="Text"
            sodipodi:nodetypes="ccsssccccccccssscccccccccccccccccccccssscccccccsssccsssss"
        />
    <path
            style="color:#000000;display:inline;fill:url(#linearGradient1148-3);stroke-width:0.999999;-inkscape-stroke:none"
            d="m 10.901417,44.541485 v 0.917959 H 149.09858 v -0.917959 z"
            id="path393-9"
            inkscape:label="Rainbow Line"
        />
    <path
            id="effect"
            style="font-weight:600;font-size:34.7369px;font-family:Montserrat;-inkscape-font-specification:'Montserrat Semi-Bold';display:inline;stroke-width:1.21875;fill-opacity:1"
            d="m 39.994742,43.963886 c 0.02651,0.298089 0.04031,0.602899 0.04031,0.914669 0,0.39779 -0.02419,0.78324 -0.06719,1.158589 h 4.568193 c 0.03096,-0.379419 0.0496,-0.764599 0.0496,-1.158589 0,-0.309999 -0.01325,-0.61364 -0.03256,-0.914669 z m 9.384952,0 v 2.073258 h 4.515482 v -2.073258 z m 40.604208,0 c 0.0233,0.3001 0.03769,0.604399 0.03769,0.914669 0,0.39462 -0.0209,0.780589 -0.0584,1.158589 h 2.544028 c 0.0312,-0.379809 0.0501,-0.765299 0.0501,-1.158589 0,-0.30952 -0.01371,-0.61344 -0.0331,-0.914669 z m 10.077938,0 -0.947753,2.073258 h 2.582793 l 0.92655,-2.073258 z m 29.79713,0 -1.26918,2.073258 h 2.58228 l 1.26761,-2.073258 z"
            sodipodi:nodetypes="csccsccccccccsccscccccccccccc"
            inkscape:label="3D Effect"
        />
  </g>
</svg>
