<?xml version="1.0" encoding="UTF-8" standalone="no"?>
<!-- Created with Inkscape (http://www.inkscape.org/) -->

<svg
   width="160mm"
   height="90mm"
   viewBox="0 0 160 90"
   version="1.1"
   id="svg240"
   inkscape:version="1.4.3 (0d15f75042, 2025-12-25)"
   sodipodi:docname="diday-event-banner-media-prefer.svg"
   inkscape:export-filename="diday-icon-main-raw1.png"
   inkscape:export-xdpi="96"
   inkscape:export-ydpi="96"
   xmlns:inkscape="http://www.inkscape.org/namespaces/inkscape"
   xmlns:sodipodi="http://sodipodi.sourceforge.net/DTD/sodipodi-0.dtd"
   xmlns:xlink="http://www.w3.org/1999/xlink"
   xmlns="http://www.w3.org/2000/svg"
   xmlns:svg="http://www.w3.org/2000/svg">
  <sodipodi:namedview
     id="namedview242"
     pagecolor="#505050"
     bordercolor="#ffffff"
     borderopacity="1"
     inkscape:showpageshadow="0"
     inkscape:pageopacity="0"
     inkscape:pagecheckerboard="1"
     inkscape:deskcolor="#505050"
     inkscape:document-units="mm"
     showgrid="false"
     inkscape:zoom="1.6288724"
     inkscape:cx="297.13807"
     inkscape:cy="108.97109"
     inkscape:window-width="2560"
     inkscape:window-height="1310"
     inkscape:window-x="0"
     inkscape:window-y="0"
     inkscape:window-maximized="1"
     inkscape:current-layer="layer3"
     showguides="false" />
  <defs
     id="defs237">
    <linearGradient
       inkscape:collect="always"
       id="linearGradient1146">
      <stop
         style="stop-color:#ff0000;stop-opacity:1;"
         offset="0"
         id="stop1142" />
      <stop
         style="stop-color:#ffff00;stop-opacity:1;"
         offset="0.2"
         id="stop1144" />
      <stop
         style="stop-color:#00ff00;stop-opacity:1;"
         offset="0.40000001"
         id="stop4054" />
      <stop
         style="stop-color:#00ffff;stop-opacity:1;"
         offset="0.60000002"
         id="stop4056" />
      <stop
         style="stop-color:#0000ff;stop-opacity:1;"
         offset="0.80000001"
         id="stop4058" />
      <stop
         style="stop-color:#ff00ff;stop-opacity:1;"
         offset="1"
         id="stop4060" />
    </linearGradient>
    <linearGradient
       inkscape:collect="always"
       xlink:href="#linearGradient1146"
       id="linearGradient1148"
       x1="48.797504"
       y1="138.62044"
       x2="118.7975"
       y2="138.62044"
       gradientUnits="userSpaceOnUse"
       gradientTransform="matrix(1.9742429,0,0,1.9742429,-66.63836,-119.94985)" />
  </defs>
  <g
     inkscape:label="Main"
     inkscape:groupmode="layer"
     id="layer1"
     transform="translate(-18.797504,-108.62044)">
    <g
       inkscape:groupmode="layer"
       id="layer3"
       inkscape:label="CTreffOS DIDAY Event Banner">
      <path
         d="m 87.606778,181.55048 q -1.033773,0 -1.921758,-0.34459 -0.874731,-0.35785 -1.537406,-0.99401 -0.649421,-0.63617 -1.007266,-1.49765 -0.357844,-0.86148 -0.357844,-1.86874 0,-1.00727 0.357844,-1.86875 0.357845,-0.86147 1.007266,-1.49764 0.662674,-0.63617 1.537406,-0.98076 0.887985,-0.35785 1.921758,-0.35785 1.033773,0 1.908503,0.35785 0.887985,0.34459 1.537407,0.98076 0.649421,0.63617 1.007266,1.49764 0.371098,0.86148 0.371098,1.86875 0,1.00726 -0.371098,1.86874 -0.357845,0.86148 -1.007266,1.49765 -0.649422,0.63616 -1.537407,0.99401 -0.87473,0.34459 -1.908503,0.34459 z m 0,-0.62291 q 1.179561,0 2.107305,-0.53014 0.941,-0.53013 1.484392,-1.45789 0.543395,-0.92774 0.543395,-2.09405 0,-1.16631 -0.543395,-2.09406 -0.543392,-0.92774 -1.484392,-1.45788 -0.927745,-0.53014 -2.107305,-0.53014 -1.179562,0 -2.12056,0.53014 -0.940999,0.53014 -1.484392,1.45788 -0.543394,0.92775 -0.543394,2.09406 0,1.16631 0.543394,2.09405 0.543393,0.92776 1.484392,1.45789 0.940998,0.53014 2.12056,0.53014 z m 8.70754,0.60966 q -0.861477,0 -1.616928,-0.25182 -0.742196,-0.25182 -1.153054,-0.63617 l 0.30483,-0.53014 q 0.397605,0.34459 1.060281,0.59641 0.662674,0.23856 1.431377,0.23856 1.100041,0 1.563913,-0.35784 0.477126,-0.35785 0.477126,-0.941 0,-0.42411 -0.251816,-0.66268 -0.238563,-0.25181 -0.649422,-0.38435 -0.410858,-0.13253 -0.901238,-0.21205 -0.490379,-0.0928 -0.980759,-0.19881 -0.490379,-0.10602 -0.901238,-0.30483 -0.410858,-0.1988 -0.662675,-0.54339 -0.238563,-0.35784 -0.238563,-0.941 0,-0.78195 0.649422,-1.3386 0.662675,-0.55665 1.974771,-0.55665 0.649422,0 1.298843,0.18555 0.662675,0.18555 1.073534,0.49038 l -0.304831,0.53014 q -0.437365,-0.31808 -0.980759,-0.46387 -0.543393,-0.15904 -1.10004,-0.15904 -1.007266,0 -1.484392,0.37109 -0.463873,0.3711 -0.463873,0.92775 0,0.43736 0.238563,0.70243 0.251817,0.25182 0.662675,0.39761 0.410859,0.13253 0.901238,0.22531 0.49038,0.0795 0.980759,0.18555 0.49038,0.10603 0.901238,0.30483 0.410859,0.18555 0.649422,0.53014 0.251817,0.33134 0.251817,0.90124 0,0.84822 -0.702435,1.37836 -0.702436,0.51689 -2.027786,0.51689 z m 4.585712,-0.053 v -6.91832 h 0.63617 v 1.48439 q 0.35785,-0.71569 1.06028,-1.12655 0.70244,-0.41086 1.6832,-0.41086 1.25908,0 2.02778,0.7422 0.78196,0.72894 0.78196,2.18682 v 4.04232 h -0.66268 v -3.9893 q 0,-1.16631 -0.5964,-1.77597 -0.58316,-0.60966 -1.64344,-0.60966 -1.21932,0 -1.92175,0.72894 -0.70244,0.72894 -0.70244,1.96152 v 3.68447 z m 13.28002,0 v -1.23257 q -0.31809,0.5964 -0.95426,0.941 -0.62291,0.34459 -1.5374,0.34459 -1.16631,0 -1.82899,-0.5434 -0.66267,-0.55664 -0.66267,-1.43138 0,-0.53013 0.23856,-0.9675 0.25182,-0.43736 0.80847,-0.70244 0.5699,-0.26507 1.5374,-0.26507 h 2.37238 v -0.55663 q 0,-1.97478 -2.05429,-1.97478 -0.71569,0 -1.33861,0.25182 -0.62291,0.23856 -1.04702,0.62291 l -0.33134,-0.47712 q 0.51688,-0.46387 1.23257,-0.71569 0.72895,-0.26507 1.53741,-0.26507 1.28559,0 1.97477,0.64941 0.68918,0.64942 0.68918,1.93501 v 4.38691 z m -0.0265,-2.04104 v -1.29884 h -2.35912 q -1.07354,0 -1.5109,0.39761 -0.42412,0.3976 -0.42412,0.99401 0,0.67593 0.50364,1.07353 0.50363,0.38435 1.41812,0.38435 0.87473,0 1.47114,-0.3976 0.60966,-0.39761 0.90124,-1.15306 z m 6.86531,2.09406 q -0.94099,0 -1.68319,-0.43737 -0.7422,-0.45061 -1.15306,-1.24583 v 1.63018 h -0.63616 v -9.83409 h 0.66267 v 4.50619 q 0.41086,-0.78196 1.15306,-1.20607 0.74219,-0.43737 1.65668,-0.43737 0.98076,0 1.74947,0.45062 0.7687,0.43737 1.21932,1.23258 0.45062,0.78195 0.45062,1.82898 0,1.03377 -0.45062,1.82898 -0.45062,0.79521 -1.21932,1.24583 -0.76871,0.43737 -1.74947,0.43737 z m -0.0398,-0.59641 q 0.79521,0 1.43138,-0.35785 0.63617,-0.37109 0.99401,-1.03377 0.3711,-0.66267 0.3711,-1.52415 0,-0.87473 -0.3711,-1.52415 -0.35784,-0.66268 -0.99401,-1.02052 -0.63617,-0.3711 -1.43138,-0.3711 -0.79521,0 -1.43137,0.3711 -0.62292,0.35784 -0.99402,1.02052 -0.35784,0.64942 -0.35784,1.52415 0,0.86148 0.35784,1.52415 0.3711,0.66268 0.99402,1.03377 0.63616,0.35785 1.43137,0.35785 z m 5.51345,0.54339 v -6.91832 h 0.63617 v 1.51089 q 0.31808,-0.75545 0.98076,-1.15305 0.67592,-0.41086 1.65668,-0.41086 v 0.64942 q -0.0398,0 -0.0795,0 -0.0398,-0.0132 -0.0795,-0.0132 -1.15305,0 -1.80247,0.72894 -0.64943,0.71569 -0.64943,2.00128 v 3.60495 z m 8.03161,0.053 q -1.32535,0 -2.10731,-0.72895 -0.78196,-0.74219 -0.78196,-2.20008 v -4.04231 h 0.66268 v 3.9893 q 0,1.16631 0.59641,1.77597 0.5964,0.60966 1.68319,0.60966 1.17956,0 1.85549,-0.72894 0.67593,-0.72895 0.67593,-1.96152 v -3.68447 h 0.66268 v 6.91832 h -0.63617 v -1.47114 q -0.34459,0.71569 -1.02052,1.12655 -0.67593,0.39761 -1.59042,0.39761 z m 1.32535,-8.45574 q -0.18555,0 -0.33134,-0.13253 -0.14579,-0.14579 -0.14579,-0.34459 0,-0.21206 0.14579,-0.34459 0.14579,-0.13254 0.33134,-0.13254 0.1988,0 0.33134,0.13254 0.14578,0.13253 0.14578,0.34459 0,0.1988 -0.14578,0.34459 -0.13254,0.13253 -0.33134,0.13253 z m -2.2796,0 q -0.19881,0 -0.3446,-0.13253 -0.13253,-0.14579 -0.13253,-0.34459 0,-0.21206 0.13253,-0.34459 0.14579,-0.13254 0.3446,-0.13254 0.18554,0 0.33133,0.13254 0.14579,0.13253 0.14579,0.34459 0,0.1988 -0.14579,0.34459 -0.14579,0.13253 -0.33133,0.13253 z m 9.75458,8.45574 q -1.00727,0 -1.80248,-0.45062 -0.78195,-0.45062 -1.24582,-1.24583 -0.45062,-0.79521 -0.45062,-1.81573 0,-1.03377 0.45062,-1.82898 0.46387,-0.79521 1.24582,-1.23258 0.79521,-0.45062 1.80248,-0.45062 0.82172,0 1.5109,0.31809 0.68918,0.31808 1.11329,0.95425 l -0.49038,0.35784 q -0.37109,-0.53013 -0.94099,-0.78195 -0.55665,-0.25182 -1.19282,-0.25182 -0.80846,0 -1.45788,0.3711 -0.63617,0.35785 -1.00727,1.02053 -0.35785,0.64941 -0.35785,1.52414 0,0.87473 0.35785,1.5374 0.3711,0.64943 1.00727,1.02052 0.64942,0.35786 1.45788,0.35786 0.63617,0 1.19282,-0.25183 0.5699,-0.25181 0.94099,-0.78194 l 0.49038,0.35784 q -0.42411,0.63617 -1.11329,0.95425 -0.68918,0.31809 -1.5109,0.31808 z m 4.49293,-0.053 v -9.83409 h 0.66268 v 6.97134 l 4.42667,-4.05557 h 0.84822 l -2.96878,2.79648 3.26036,4.12184 h -0.82172 l -2.95553,-3.69772 -1.78922,1.65668 v 2.04104 z"
         id="text-osnabrueck"
         inkscape:label="Osnabrueck"
         aria-label="Osnabrück" />
      <path
         d="m 48.571514,135.78956 q -1.073532,0 -2.001278,-0.35785 -0.914492,-0.35784 -1.59042,-0.99401 -0.675929,-0.64942 -1.06028,-1.52415 -0.371098,-0.87473 -0.371098,-1.92176 0,-1.04702 0.371098,-1.92176 0.384352,-0.87473 1.06028,-1.51089 0.689182,-0.64943 1.603673,-1.00727 0.914493,-0.35784 2.001279,-0.35784 1.206068,0 2.186827,0.42411 0.980759,0.42411 1.630181,1.21932 l -1.378364,1.27234 q -0.954251,-1.08679 -2.332616,-1.08679 -0.874731,0 -1.55066,0.38435 -0.662675,0.3711 -1.047026,1.04703 -0.371098,0.66267 -0.371098,1.5374 0,0.87473 0.371098,1.55066 0.384351,0.66268 1.047026,1.04703 0.675929,0.3711 1.55066,0.3711 1.378364,0 2.332616,-1.10004 l 1.378364,1.27234 q -0.649422,0.80846 -1.630181,1.23258 -0.980759,0.42411 -2.200081,0.4241 z m 5.009836,-0.15904 v -9.8341 h 2.067546 v 3.44591 q 0.424112,-0.41086 0.994012,-0.62291 0.583154,-0.22531 1.272336,-0.22531 0.848225,0 1.5109,0.34459 0.675928,0.33133 1.060279,1.03377 0.384352,0.68918 0.384352,1.77597 v 4.08208 h -2.067546 v -3.764 q 0,-0.86147 -0.384352,-1.27233 -0.384351,-0.41086 -1.060279,-0.41086 -0.742196,0 -1.232575,0.47712 -0.477126,0.46388 -0.477126,1.44464 v 3.52543 z m 13.531824,0 v -0.87473 q -0.596407,0.98076 -2.173574,0.98076 -1.259083,0 -1.961518,-0.60967 -0.702436,-0.62291 -0.702436,-1.55066 0,-0.94099 0.715689,-1.5374 0.715689,-0.59641 2.34587,-0.59641 h 1.643434 v 0 q 0,-0.66266 -0.410859,-1.03377 -0.397605,-0.3711 -1.232575,-0.3711 -0.569901,0 -1.126548,0.18555 -0.543393,0.17229 -0.927745,0.47713 l -0.742196,-1.44464 q 0.583154,-0.41085 1.404871,-0.63616 0.821718,-0.22531 1.669941,-0.22531 1.630181,0 2.531419,0.78195 0.901239,0.76871 0.901239,2.38563 v 4.06883 z m -0.132535,-2.2531 v -0.72894 h -1.418125 q -0.728942,0 -1.007266,0.23856 -0.26507,0.23857 -0.26507,0.59641 0,0.39761 0.304831,0.63617 0.318084,0.22531 0.861477,0.22531 0.516887,0 0.927745,-0.23857 0.410859,-0.25181 0.596408,-0.72894 z m 7.382203,2.35913 q -1.139801,0 -2.027786,-0.46388 -0.874731,-0.47712 -1.391617,-1.29884 -0.503632,-0.83497 -0.503632,-1.9085 0,-1.07354 0.503632,-1.89525 0.516886,-0.83498 1.391617,-1.29885 0.887985,-0.47712 2.027786,-0.47712 1.126548,0 2.014533,0.47712 0.887984,0.46387 1.391616,1.29885 0.503633,0.82171 0.503633,1.89525 0,1.07353 -0.503633,1.9085 -0.503632,0.82172 -1.391616,1.29884 -0.887985,0.46388 -2.014533,0.46388 z m 0,-1.69645 q 0.768704,0 1.285589,-0.53014 0.530141,-0.53014 0.530141,-1.44463 0,-0.92775 -0.530141,-1.44464 -0.516885,-0.53013 -1.285589,-0.53013 -0.781957,0 -1.312096,0.53013 -0.516886,0.51689 -0.516886,1.44464 0,0.91449 0.516886,1.44463 0.53014,0.53014 1.312096,0.53014 z m 7.687037,1.69645 q -0.914491,0 -1.762715,-0.21206 -0.834971,-0.22531 -1.32535,-0.55665 l 0.689182,-1.48439 q 0.477126,0.31808 1.153054,0.50363 0.675929,0.18555 1.32535,0.18555 0.715689,0 1.007266,-0.17229 0.30483,-0.1723 0.30483,-0.47713 0,-0.34459 -0.424111,-0.46387 -0.424112,-0.11928 -1.020521,-0.21206 -0.477125,-0.0663 -0.980759,-0.17229 -0.490379,-0.10603 -0.927745,-0.31809 -0.424112,-0.21205 -0.689182,-0.60966 -0.26507,-0.3976 -0.26507,-1.04702 0,-1.00727 0.861479,-1.65669 0.87473,-0.64942 2.438643,-0.64942 0.728943,0 1.471138,0.17229 0.75545,0.15904 1.272336,0.45062 l -0.689182,1.47114 q -0.53014,-0.30483 -1.047026,-0.41086 -0.516887,-0.11928 -1.007266,-0.11928 -0.702436,0 -1.02052,0.1988 -0.30483,0.18555 -0.30483,0.46387 0,0.30483 0.30483,0.45062 0.318084,0.13254 0.808464,0.21206 0.490379,0.0663 1.033773,0.17229 0.556647,0.0928 1.047026,0.30484 0.49038,0.1988 0.79521,0.60966 0.318084,0.3976 0.318084,1.10004 0,0.99401 -0.887984,1.63018 -0.874731,0.63617 -2.478404,0.63617 z m 7.5545,0 q -1.259083,0 -1.961518,-0.63617 -0.702436,-0.64942 -0.702436,-1.92176 v -3.08807 h -1.10004 v -1.59042 h 1.10004 v -1.57715 h 2.067546 v 1.57715 h 1.775969 v 1.59042 h -1.775969 v 3.06156 q 0,0.45062 0.22531,0.70244 0.238563,0.23856 0.662674,0.23856 0.49038,0 0.83497,-0.26507 l 0.556647,1.45789 q -0.318084,0.22531 -0.768703,0.34459 -0.437365,0.10603 -0.91449,0.10603 z m 2.849496,-0.10603 v -7.13039 h 1.974772 v 0.941 q 0.755449,-1.04702 2.451897,-1.04702 v 1.9085 q -0.26507,-0.0265 -0.463872,-0.0265 -0.861478,0 -1.378364,0.49038 -0.516887,0.47713 -0.516887,1.49765 v 3.36639 z m 9.131645,0.10603 q -1.23258,0 -2.147066,-0.47713 -0.914492,-0.47713 -1.418125,-1.29884 -0.503633,-0.83497 -0.503633,-1.89525 0,-1.07354 0.490379,-1.89525 0.503633,-0.83498 1.365109,-1.29885 0.861476,-0.47712 1.948266,-0.47712 1.04702,0 1.88199,0.45062 0.84823,0.45061 1.33861,1.28558 0.49038,0.82172 0.49038,1.96152 0,0.11928 -0.0133,0.27833 -0.0132,0.14578 -0.0265,0.27832 h -5.394176 q 0.15904,0.66267 0.689176,1.04703 0.5434,0.38435 1.35186,0.38435 0.5699,0 0.99401,-0.1723 0.43737,-0.17229 0.79521,-0.51687 l 1.10004,1.19281 q -1.00726,1.15306 -2.94227,1.15306 z m -2.001276,-4.29414 h 3.498916 q -0.10603,-0.67593 -0.58315,-1.07353 -0.46387,-0.41086 -1.16631,-0.41086 -0.70244,0 -1.17956,0.41086 -0.463866,0.3976 -0.569896,1.07353 z m 7.077376,4.18811 v -5.38092 h -1.10004 v -1.59042 h 1.10004 v -0.31809 q 0,-1.20607 0.71569,-1.92176 0.71568,-0.72894 2.04103,-0.72894 0.43737,0 0.86148,0.0928 0.42411,0.0928 0.71569,0.29157 l -0.54339,1.49765 q -0.1723,-0.11928 -0.38435,-0.18555 -0.21206,-0.0663 -0.45062,-0.0663 -0.941,0 -0.941,1.03378 v 0.30483 h 1.82898 v 1.59042 h -1.77597 v 5.38092 z m 5.23511,0 v -5.38092 h -1.10004 v -1.59042 h 1.10004 v -0.31809 q 0,-1.20607 0.71569,-1.92176 0.71569,-0.72894 2.04104,-0.72894 0.43736,0 0.86147,0.0928 0.42412,0.0928 0.71569,0.29157 l -0.54339,1.49765 q -0.1723,-0.11928 -0.38435,-0.18555 -0.21206,-0.0663 -0.45062,-0.0663 -0.941,0 -0.941,1.03378 v 0.30483 h 1.82898 v 1.59042 h -1.77597 v 5.38092 z"
         id="text-chaostreff"
         inkscape:label="Chaostreff"
         aria-label="Chaostreff&#10;" />
      <g
         id="text-diday"
         inkscape:label="DIDAY"
         aria-label="DIDAY"
         transform="translate(-0.9014965,-4.900045)">
        <path
           d="m 44.449934,170.65622 v -24.31583 h 10.629492 q 3.960006,0 6.94738,1.52842 2.987373,1.49369 4.654745,4.2379 1.667371,2.74422 1.667371,6.39159 0,3.64738 -1.667371,6.39159 -1.667372,2.74422 -4.654745,4.27264 -2.987374,1.49369 -6.94738,1.49369 z m 4.515797,-3.82106 h 5.905273 q 2.709479,0 4.724219,-1.00737 2.01474,-1.04211 3.091584,-2.9179 1.111581,-1.87579 1.111581,-4.41159 0,-2.53579 -1.111581,-4.41158 -1.076844,-1.87579 -3.091584,-2.88316 -2.01474,-1.04211 -4.724219,-1.04211 h -5.905273 z m 24.176891,3.82106 v -24.31583 h 4.515797 v 24.31583 z m 11.081078,0 v -24.31583 h 10.629491 q 3.960007,0 6.947379,1.52842 2.98737,1.49369 4.65475,4.2379 1.66737,2.74422 1.66737,6.39159 0,3.64738 -1.66737,6.39159 -1.66738,2.74422 -4.65475,4.27264 -2.987372,1.49369 -6.947379,1.49369 z m 4.515797,-3.82106 h 5.905273 q 2.709478,0 4.724218,-1.00737 2.014742,-1.04211 3.091582,-2.9179 1.11158,-1.87579 1.11158,-4.41159 0,-2.53579 -1.11158,-4.41158 -1.07684,-1.87579 -3.091582,-2.88316 -2.01474,-1.04211 -4.724218,-1.04211 h -5.905273 z"
           id="text-did"
           inkscape:label="DID" />
        <path
           d="m 109.72059,170.65622 11.11581,-24.31583 h 2.53579 l 11.11581,24.31583 h -2.70948 l -2.88316,-6.4958 h -13.58213 l -2.9179,6.4958 z m 6.53054,-8.58001 h 11.70634 l -5.87054,-13.06108 z m 26.43479,8.58001 v -8.40633 l -9.72634,-15.9095 h 2.74422 l 8.33685,13.61686 8.33686,-13.61686 h 2.57053 l -9.72633,15.9095 v 8.40633 z"
           id="text-ay"
           inkscape:label="AY" />
      </g>
      <path
         style="color:#000000;fill:url(#linearGradient1148);stroke-width:1.21875;-inkscape-stroke:none"
         d="m 29.698874,153.26141 v 0.91796 H 167.89613 v -0.91796 z"
         id="rainbowline"
         inkscape:label="Rainbow Line" />
      <path
         id="effect"
         d="m 62.580101,151.07874 c 0.211272,0.77722 0.316777,1.61709 0.316777,2.51974 0,0.99799 -0.129323,1.91916 -0.387573,2.76366 h 4.6731 c 0.176591,-0.87338 0.2651,-1.7946 0.2651,-2.76366 0,-0.87927 -0.07269,-1.71915 -0.218074,-2.51974 z m 9.66091,0 v 5.2834 h 4.516003 v -5.2834 z m 30.112889,0 c 0.21127,0.77722 0.31677,1.61709 0.31677,2.51974 0,0.99799 -0.12932,1.91916 -0.38757,2.76366 h 4.6731 c 0.17659,-0.87338 0.2651,-1.7946 0.2651,-2.76366 0,-0.87927 -0.0727,-1.71915 -0.21807,-2.51974 z m 13.1749,0 -2.41535,5.2834 h 2.59984 l 2.36058,-5.2834 z m 29.39511,5.2834 3.23029,-5.2834 h -2.57917 l -2.43602,3.97857 z"
         sodipodi:nodetypes="csccsccccccccsccscccccccccccc"
         inkscape:label="3D Effect" />
    </g>
  </g>
  <style
     id="style15">
    #text-diday, #text-chaostreff, #text-osnabrueck, #effect{
      fill: #191919;
    }
    @media (prefers-color-scheme: dark) {
        #text-diday, #text-chaostreff, #text-osnabrueck, #effect{
        fill: #ffffff;
        }
    }
  </style>
</svg>
